<?xml version="1.0" encoding="UTF-8" standalone="no"?>
<!DOCTYPE svg PUBLIC "-//W3C//DTD SVG 1.1//EN"
 "http://www.w3.org/Graphics/SVG/1.1/DTD/svg11.dtd">
<!-- Generated by graphviz version 2.43.0 (0)
 -->
<!-- Title: P4::ICompileContext Pages: 1 -->
<!--zoomable 710 -->

<svg id="main" version="1.1" xmlns="http://www.w3.org/2000/svg" xmlns:xlink="http://www.w3.org/1999/xlink" xml:space="preserve" onload="init(evt)">

<style type="text/css"><![CDATA[
.node, .edge {opacity: 0.7;}
.node.selected, .edge.selected {opacity: 1;}
.edge:hover path { stroke: red; }
.edge:hover polygon { stroke: red; fill: red; }
]]></style>

<defs>
  <circle id="rim" cx="0" cy="0" r="7"/>
  <circle id="rim2" cx="0" cy="0" r="3.5"/>
  <g id="zoomPlus">
    <use xlink:href="#rim" fill="#404040"><set attributeName="fill" to="#808080" begin="zoomplus.mouseover" end="zoomplus.mouseout"/></use>
    <path d="M-4,0h8M0,-4v8" fill="none" stroke="white" stroke-width="1.5" pointer-events="none"/>
  </g>
  <g id="zoomMin">
    <use xlink:href="#rim" fill="#404040"><set attributeName="fill" to="#808080" begin="zoomminus.mouseover" end="zoomminus.mouseout"/></use>
    <path d="M-4,0h8" fill="none" stroke="white" stroke-width="1.5" pointer-events="none"/>
  </g>
  <g id="arrowUp" transform="translate(30 24)">
    <use xlink:href="#rim"/>
    <path pointer-events="none" fill="none" stroke="white" stroke-width="1.5" d="M0,-3.0v7 M-2.5,-0.5L0,-3.0L2.5,-0.5"/>
  </g>
  <g id="arrowRight" transform="rotate(90) translate(36 -43)">
    <use xlink:href="#rim"/>
    <path pointer-events="none" fill="none" stroke="white" stroke-width="1.5" d="M0,-3.0v7 M-2.5,-0.5L0,-3.0L2.5,-0.5"/>
  </g>
  <g id="arrowDown" transform="rotate(180) translate(-30 -48)">
    <use xlink:href="#rim"/>
    <path pointer-events="none" fill="none" stroke="white" stroke-width="1.5" d="M0,-3.0v7 M-2.5,-0.5L0,-3.0L2.5,-0.5"/>
  </g>
  <g id="arrowLeft" transform="rotate(270) translate(-36 17)">
    <use xlink:href="#rim"/>
    <path pointer-events="none" fill="none" stroke="white" stroke-width="1.5" d="M0,-3.0v7 M-2.5,-0.5L0,-3.0L2.5,-0.5"/>
  </g>
  <g id="resetDef">
    <use xlink:href="#rim2" fill="#404040"><set attributeName="fill" to="#808080" begin="reset.mouseover" end="reset.mouseout"/></use>
  </g>
</defs>
<script type="application/ecmascript">
var viewWidth = 626;
var viewHeight = 710;
var sectionId = 'dynsection-0';
</script>
<script type="application/ecmascript" xlink:href="svg.min.js"/>
<svg id="graph" class="graph">
<g id="viewport">
<title>P4::ICompileContext</title>
<!-- Node1 -->
<g id="Node000001" class="node">
<title>Node1</title>
<g id="a_Node000001"><a xlink:title=" ">
<polygon fill="#999999" stroke="#666666" points="116,-341.5 0,-341.5 0,-322.5 116,-322.5 116,-341.5"/>
<text text-anchor="middle" x="58" y="-329.5" font-family="Helvetica,sans-Serif" font-size="10.00">P4::ICompileContext</text>
</a>
</g>
</g>
<!-- Node2 -->
<g id="Node000002" class="node">
<title>Node2</title>
<g id="a_Node000002"><a xlink:href="class_p4_1_1_base_compile_context.html" target="_top" xlink:title=" ">
<polygon fill="white" stroke="#666666" points="289,-341.5 152,-341.5 152,-322.5 289,-322.5 289,-341.5"/>
<text text-anchor="middle" x="220.5" y="-329.5" font-family="Helvetica,sans-Serif" font-size="10.00">P4::BaseCompileContext</text>
</a>
</g>
</g>
<!-- Node1&#45;&gt;Node2 -->
<g id="edge1_Node000001_Node000002" class="edge">
<title>Node1&#45;&gt;Node2</title>
<g id="a_edge1_Node000001_Node000002"><a xlink:title=" ">
<path fill="none" stroke="#63b8ff" d="M126.27,-332C134.76,-332 143.45,-332 151.94,-332"/>
<polygon fill="#63b8ff" stroke="#63b8ff" points="126.04,-328.5 116.04,-332 126.04,-335.5 126.04,-328.5"/>
</a>
</g>
</g>
<!-- Node3 -->
<g id="Node000003" class="node">
<title>Node3</title>
<g id="a_Node000003"><a xlink:href="class_p4_1_1_p4_c_context.html" target="_top" xlink:title=" ">
<polygon fill="white" stroke="#666666" points="421.5,-360.5 329.5,-360.5 329.5,-341.5 421.5,-341.5 421.5,-360.5"/>
<text text-anchor="middle" x="375.5" y="-348.5" font-family="Helvetica,sans-Serif" font-size="10.00">P4::P4CContext</text>
</a>
</g>
</g>
<!-- Node2&#45;&gt;Node3 -->
<g id="edge2_Node000002_Node000003" class="edge">
<title>Node2&#45;&gt;Node3</title>
<g id="a_edge2_Node000002_Node000003"><a xlink:title=" ">
<path fill="none" stroke="#63b8ff" d="M298.98,-341.62C309.36,-342.91 319.71,-344.2 329.27,-345.38"/>
<polygon fill="#63b8ff" stroke="#63b8ff" points="299.41,-338.15 289.05,-340.39 298.55,-345.09 299.41,-338.15"/>
</a>
</g>
</g>
<!-- Node19 -->
<g id="Node000019" class="node">
<title>Node19</title>
<g id="a_Node000019"><a xlink:href="class_ref_check_context.html" target="_top" xlink:title=" ">
<polygon fill="white" stroke="#bfbfbf" points="426,-323.5 325,-323.5 325,-304.5 426,-304.5 426,-323.5"/>
<text text-anchor="middle" x="375.5" y="-311.5" font-family="Helvetica,sans-Serif" font-size="10.00">RefCheckContext</text>
</a>
</g>
</g>
<!-- Node2&#45;&gt;Node19 -->
<g id="edge18_Node000002_Node000019" class="edge">
<title>Node2&#45;&gt;Node19</title>
<g id="a_edge18_Node000002_Node000019"><a xlink:title=" ">
<path fill="none" stroke="#63b8ff" d="M299.23,-322.86C307.91,-321.83 316.57,-320.81 324.77,-319.85"/>
<polygon fill="#63b8ff" stroke="#63b8ff" points="298.58,-319.41 289.05,-324.05 299.39,-326.36 298.58,-319.41"/>
</a>
</g>
</g>
<!-- Node4 -->
<g id="Node000004" class="node">
<title>Node4</title>
<g id="a_Node000004"><a xlink:href="class_p4_1_1_p4_c_context_with_options.html" target="_top" xlink:title=" ">
<polygon fill="white" stroke="#666666" points="616,-702 464,-702 464,-672 616,-672 616,-702"/>
<text text-anchor="start" x="472" y="-690" font-family="Helvetica,sans-Serif" font-size="10.00">P4::P4CContextWithOptions</text>
<text text-anchor="middle" x="540" y="-679" font-family="Helvetica,sans-Serif" font-size="10.00">&lt; BMV2Options &gt;</text>
</a>
</g>
</g>
<!-- Node3&#45;&gt;Node4 -->
<g id="edge3_Node000003_Node000004" class="edge">
<title>Node3&#45;&gt;Node4</title>
<g id="a_edge3_Node000003_Node000004"><a xlink:title=" ">
<path fill="none" stroke="#63b8ff" d="M375.83,-370.78C375.11,-425.24 380.77,-578.9 462,-663 465.31,-666.42 469.09,-669.36 473.18,-671.88"/>
<polygon fill="#63b8ff" stroke="#63b8ff" points="379.33,-370.8 376.06,-360.73 372.33,-370.64 379.33,-370.8"/>
</a>
</g>
</g>
<!-- Node5 -->
<g id="Node000005" class="node">
<title>Node5</title>
<g id="a_Node000005"><a xlink:href="class_p4_1_1_p4_c_context_with_options.html" target="_top" xlink:title=" ">
<polygon fill="white" stroke="#666666" points="616,-654 464,-654 464,-624 616,-624 616,-654"/>
<text text-anchor="start" x="472" y="-642" font-family="Helvetica,sans-Serif" font-size="10.00">P4::P4CContextWithOptions</text>
<text text-anchor="middle" x="540" y="-631" font-family="Helvetica,sans-Serif" font-size="10.00">&lt; PnaNicOptions &gt;</text>
</a>
</g>
</g>
<!-- Node3&#45;&gt;Node5 -->
<g id="edge4_Node000003_Node000005" class="edge">
<title>Node3&#45;&gt;Node5</title>
<g id="a_edge4_Node000003_Node000005"><a xlink:title=" ">
<path fill="none" stroke="#63b8ff" d="M377,-370.6C379.3,-419.11 392.08,-545.84 462,-615 465.48,-618.45 469.46,-621.4 473.71,-623.93"/>
<polygon fill="#63b8ff" stroke="#63b8ff" points="380.49,-370.38 376.62,-360.51 373.49,-370.64 380.49,-370.38"/>
</a>
</g>
</g>
<!-- Node6 -->
<g id="Node000006" class="node">
<title>Node6</title>
<g id="a_Node000006"><a xlink:href="class_p4_1_1_p4_c_context_with_options.html" target="_top" xlink:title=" ">
<polygon fill="white" stroke="#666666" points="616,-606 464,-606 464,-576 616,-576 616,-606"/>
<text text-anchor="start" x="472" y="-594" font-family="Helvetica,sans-Serif" font-size="10.00">P4::P4CContextWithOptions</text>
<text text-anchor="middle" x="540" y="-583" font-family="Helvetica,sans-Serif" font-size="10.00">&lt; PsaSwitchOptions &gt;</text>
</a>
</g>
</g>
<!-- Node3&#45;&gt;Node6 -->
<g id="edge5_Node000003_Node000006" class="edge">
<title>Node3&#45;&gt;Node6</title>
<g id="a_edge5_Node000003_Node000006"><a xlink:title=" ">
<path fill="none" stroke="#63b8ff" d="M378.68,-370.96C384.36,-413.32 403.5,-512.72 462,-567 465.7,-570.43 469.87,-573.37 474.33,-575.89"/>
<polygon fill="#63b8ff" stroke="#63b8ff" points="382.12,-370.33 377.43,-360.83 375.18,-371.18 382.12,-370.33"/>
</a>
</g>
</g>
<!-- Node7 -->
<g id="Node000007" class="node">
<title>Node7</title>
<g id="a_Node000007"><a xlink:href="class_p4_1_1_p4_c_context_with_options.html" target="_top" xlink:title=" ">
<polygon fill="white" stroke="#666666" points="616,-558 464,-558 464,-528 616,-528 616,-558"/>
<text text-anchor="start" x="472" y="-546" font-family="Helvetica,sans-Serif" font-size="10.00">P4::P4CContextWithOptions</text>
<text text-anchor="middle" x="540" y="-535" font-family="Helvetica,sans-Serif" font-size="10.00">&lt; SimpleSwitchOptions &gt;</text>
</a>
</g>
</g>
<!-- Node3&#45;&gt;Node7 -->
<g id="edge6_Node000003_Node000007" class="edge">
<title>Node3&#45;&gt;Node7</title>
<g id="a_edge6_Node000003_Node000007"><a xlink:title=" ">
<path fill="none" stroke="#63b8ff" d="M381.09,-370.53C390.3,-405.47 414.39,-478.81 462,-519 466.07,-522.43 470.62,-525.37 475.43,-527.9"/>
<polygon fill="#63b8ff" stroke="#63b8ff" points="384.43,-369.47 378.61,-360.62 377.64,-371.17 384.43,-369.47"/>
</a>
</g>
</g>
<!-- Node8 -->
<g id="Node000008" class="node">
<title>Node8</title>
<g id="a_Node000008"><a xlink:href="class_p4_1_1_p4_c_context_with_options.html" target="_top" xlink:title=" ">
<polygon fill="white" stroke="#666666" points="616,-510 464,-510 464,-480 616,-480 616,-510"/>
<text text-anchor="start" x="472" y="-498" font-family="Helvetica,sans-Serif" font-size="10.00">P4::P4CContextWithOptions</text>
<text text-anchor="middle" x="540" y="-487" font-family="Helvetica,sans-Serif" font-size="10.00">&lt; DpdkOptions &gt;</text>
</a>
</g>
</g>
<!-- Node3&#45;&gt;Node8 -->
<g id="edge7_Node000003_Node000008" class="edge">
<title>Node3&#45;&gt;Node8</title>
<g id="a_edge7_Node000003_Node000008"><a xlink:title=" ">
<path fill="none" stroke="#63b8ff" d="M385.13,-370.05C398.09,-396.53 425.06,-444.24 462,-471 466.76,-474.45 472.04,-477.41 477.52,-479.96"/>
<polygon fill="#63b8ff" stroke="#63b8ff" points="388.16,-368.26 380.72,-360.72 381.83,-371.26 388.16,-368.26"/>
</a>
</g>
</g>
<!-- Node9 -->
<g id="Node000009" class="node">
<title>Node9</title>
<g id="a_Node000009"><a xlink:href="class_p4_1_1_p4_c_context_with_options.html" target="_top" xlink:title=" ">
<polygon fill="white" stroke="#666666" points="616,-462 464,-462 464,-432 616,-432 616,-462"/>
<text text-anchor="start" x="472" y="-450" font-family="Helvetica,sans-Serif" font-size="10.00">P4::P4CContextWithOptions</text>
<text text-anchor="middle" x="540" y="-439" font-family="Helvetica,sans-Serif" font-size="10.00">&lt; EbpfOptions &gt;</text>
</a>
</g>
</g>
<!-- Node3&#45;&gt;Node9 -->
<g id="edge8_Node000003_Node000009" class="edge">
<title>Node3&#45;&gt;Node9</title>
<g id="a_edge8_Node000003_Node000009"><a xlink:title=" ">
<path fill="none" stroke="#63b8ff" d="M392.63,-368.06C408.8,-384.26 435.09,-408.26 462,-423 468.14,-426.36 474.82,-429.33 481.59,-431.92"/>
<polygon fill="#63b8ff" stroke="#63b8ff" points="395.04,-365.52 385.55,-360.81 390.04,-370.41 395.04,-365.52"/>
</a>
</g>
</g>
<!-- Node10 -->
<g id="Node000010" class="node">
<title>Node10</title>
<g id="a_Node000010"><a xlink:href="class_p4_1_1_p4_c_context_with_options.html" target="_top" xlink:title=" ">
<polygon fill="white" stroke="#666666" points="616,-414 464,-414 464,-384 616,-384 616,-414"/>
<text text-anchor="start" x="472" y="-402" font-family="Helvetica,sans-Serif" font-size="10.00">P4::P4CContextWithOptions</text>
<text text-anchor="middle" x="540" y="-391" font-family="Helvetica,sans-Serif" font-size="10.00">&lt; P4FeaturesOptions &gt;</text>
</a>
</g>
</g>
<!-- Node3&#45;&gt;Node10 -->
<g id="edge9_Node000003_Node000010" class="edge">
<title>Node3&#45;&gt;Node10</title>
<g id="a_edge9_Node000003_Node000010"><a xlink:title=" ">
<path fill="none" stroke="#63b8ff" d="M418.68,-363.46C439.87,-369.72 465.71,-377.35 488.01,-383.94"/>
<polygon fill="#63b8ff" stroke="#63b8ff" points="419.58,-360.07 408.99,-360.6 417.59,-366.79 419.58,-360.07"/>
</a>
</g>
</g>
<!-- Node11 -->
<g id="Node000011" class="node">
<title>Node11</title>
<g id="a_Node000011"><a xlink:href="class_p4_1_1_p4_c_context_with_options.html" target="_top" xlink:title=" ">
<polygon fill="white" stroke="#666666" points="616,-366 464,-366 464,-336 616,-336 616,-366"/>
<text text-anchor="start" x="472" y="-354" font-family="Helvetica,sans-Serif" font-size="10.00">P4::P4CContextWithOptions</text>
<text text-anchor="middle" x="540" y="-343" font-family="Helvetica,sans-Serif" font-size="10.00">&lt; Options &gt;</text>
</a>
</g>
</g>
<!-- Node3&#45;&gt;Node11 -->
<g id="edge10_Node000003_Node000011" class="edge">
<title>Node3&#45;&gt;Node11</title>
<g id="a_edge10_Node000003_Node000011"><a xlink:title=" ">
<path fill="none" stroke="#63b8ff" d="M431.82,-351C442.11,-351 453.01,-351 463.78,-351"/>
<polygon fill="#63b8ff" stroke="#63b8ff" points="431.77,-347.5 421.77,-351 431.77,-354.5 431.77,-347.5"/>
</a>
</g>
</g>
<!-- Node12 -->
<g id="Node000012" class="node">
<title>Node12</title>
<g id="a_Node000012"><a xlink:href="class_p4_1_1_p4_c_context_with_options.html" target="_top" xlink:title=" ">
<polygon fill="white" stroke="#666666" points="616,-318 464,-318 464,-288 616,-288 616,-318"/>
<text text-anchor="start" x="472" y="-306" font-family="Helvetica,sans-Serif" font-size="10.00">P4::P4CContextWithOptions</text>
<text text-anchor="middle" x="540" y="-295" font-family="Helvetica,sans-Serif" font-size="10.00">&lt; P4fmtOptions &gt;</text>
</a>
</g>
</g>
<!-- Node3&#45;&gt;Node12 -->
<g id="edge11_Node000003_Node000012" class="edge">
<title>Node3&#45;&gt;Node12</title>
<g id="a_edge11_Node000003_Node000012"><a xlink:title=" ">
<path fill="none" stroke="#63b8ff" d="M418.68,-338.54C439.87,-332.28 465.71,-324.65 488.01,-318.06"/>
<polygon fill="#63b8ff" stroke="#63b8ff" points="417.59,-335.21 408.99,-341.4 419.58,-341.93 417.59,-335.21"/>
</a>
</g>
</g>
<!-- Node13 -->
<g id="Node000013" class="node">
<title>Node13</title>
<g id="a_Node000013"><a xlink:href="class_p4_1_1_p4_c_context_with_options.html" target="_top" xlink:title=" ">
<polygon fill="white" stroke="#666666" points="616,-270 464,-270 464,-240 616,-240 616,-270"/>
<text text-anchor="start" x="472" y="-258" font-family="Helvetica,sans-Serif" font-size="10.00">P4::P4CContextWithOptions</text>
<text text-anchor="middle" x="540" y="-247" font-family="Helvetica,sans-Serif" font-size="10.00">&lt; P4TestOptions &gt;</text>
</a>
</g>
</g>
<!-- Node3&#45;&gt;Node13 -->
<g id="edge12_Node000003_Node000013" class="edge">
<title>Node3&#45;&gt;Node13</title>
<g id="a_edge12_Node000003_Node000013"><a xlink:title=" ">
<path fill="none" stroke="#63b8ff" d="M420.43,-336.84C422.38,-335.65 424.25,-334.38 426,-333 448.68,-315.18 438.91,-296.28 462,-279 466.6,-275.56 471.7,-272.61 477.02,-270.07"/>
<polygon fill="#63b8ff" stroke="#63b8ff" points="418.79,-333.75 411.53,-341.46 422.02,-339.96 418.79,-333.75"/>
</a>
</g>
</g>
<!-- Node14 -->
<g id="Node000014" class="node">
<title>Node14</title>
<g id="a_Node000014"><a xlink:href="class_p4_1_1_p4_c_context_with_options.html" target="_top" xlink:title=" ">
<polygon fill="white" stroke="#666666" points="616,-222 464,-222 464,-192 616,-192 616,-222"/>
<text text-anchor="start" x="472" y="-210" font-family="Helvetica,sans-Serif" font-size="10.00">P4::P4CContextWithOptions</text>
<text text-anchor="middle" x="540" y="-199" font-family="Helvetica,sans-Serif" font-size="10.00">&lt; TCOptions &gt;</text>
</a>
</g>
</g>
<!-- Node3&#45;&gt;Node14 -->
<g id="edge13_Node000003_Node000014" class="edge">
<title>Node3&#45;&gt;Node14</title>
<g id="a_edge13_Node000003_Node000014"><a xlink:title=" ">
<path fill="none" stroke="#63b8ff" d="M423.02,-335.7C424.06,-334.85 425.06,-333.95 426,-333 459.83,-298.85 427.38,-264.36 462,-231 465.53,-227.6 469.53,-224.68 473.81,-222.17"/>
<polygon fill="#63b8ff" stroke="#63b8ff" points="420.8,-332.97 414.33,-341.36 424.62,-338.84 420.8,-332.97"/>
</a>
</g>
</g>
<!-- Node15 -->
<g id="Node000015" class="node">
<title>Node15</title>
<g id="a_Node000015"><a xlink:href="class_p4_1_1_p4_tools_1_1_compile_context.html" target="_top" xlink:title=" ">
<polygon fill="white" stroke="#666666" points="618,-174 462,-174 462,-144 618,-144 618,-174"/>
<text text-anchor="start" x="470" y="-162" font-family="Helvetica,sans-Serif" font-size="10.00">P4::P4Tools::CompileContext</text>
<text text-anchor="middle" x="540" y="-151" font-family="Helvetica,sans-Serif" font-size="10.00">&lt; P4TestOptions &gt;</text>
</a>
</g>
</g>
<!-- Node3&#45;&gt;Node15 -->
<g id="edge14_Node000003_Node000015" class="edge">
<title>Node3&#45;&gt;Node15</title>
<g id="a_edge14_Node000003_Node000015"><a xlink:title=" ">
<path fill="none" stroke="#63b8ff" d="M423.59,-335.44C424.43,-334.67 425.24,-333.85 426,-333 471.66,-281.86 415.16,-233.07 462,-183 465.16,-179.63 468.78,-176.72 472.69,-174.22"/>
<polygon fill="#63b8ff" stroke="#63b8ff" points="421.29,-332.78 415.16,-341.42 425.34,-338.49 421.29,-332.78"/>
</a>
</g>
</g>
<!-- Node16 -->
<g id="Node000016" class="node">
<title>Node16</title>
<g id="a_Node000016"><a xlink:href="class_p4_1_1_p4_tools_1_1_compile_context.html" target="_top" xlink:title=" ">
<polygon fill="white" stroke="#666666" points="618,-126 462,-126 462,-96 618,-96 618,-126"/>
<text text-anchor="start" x="470" y="-114" font-family="Helvetica,sans-Serif" font-size="10.00">P4::P4Tools::CompileContext</text>
<text text-anchor="middle" x="540" y="-103" font-family="Helvetica,sans-Serif" font-size="10.00">&lt; P4ReachabilityOptions &gt;</text>
</a>
</g>
</g>
<!-- Node3&#45;&gt;Node16 -->
<g id="edge15_Node000003_Node000016" class="edge">
<title>Node3&#45;&gt;Node16</title>
<g id="a_edge15_Node000003_Node000016"><a xlink:title=" ">
<path fill="none" stroke="#63b8ff" d="M424.05,-335.11C424.73,-334.44 425.38,-333.73 426,-333 483.68,-264.64 402.74,-201.99 462,-135 465.06,-131.54 468.61,-128.57 472.48,-126.03"/>
<polygon fill="#63b8ff" stroke="#63b8ff" points="421.71,-332.49 415.83,-341.3 425.92,-338.09 421.71,-332.49"/>
</a>
</g>
</g>
<!-- Node17 -->
<g id="Node000017" class="node">
<title>Node17</title>
<g id="a_Node000017"><a xlink:href="class_p4_1_1_p4_c_context_with_options.html" target="_top" xlink:title=" ">
<polygon fill="white" stroke="#666666" points="616,-78 464,-78 464,-48 616,-48 616,-78"/>
<text text-anchor="start" x="472" y="-66" font-family="Helvetica,sans-Serif" font-size="10.00">P4::P4CContextWithOptions</text>
<text text-anchor="middle" x="540" y="-55" font-family="Helvetica,sans-Serif" font-size="10.00">&lt; OptionsType &gt;</text>
</a>
</g>
</g>
<!-- Node3&#45;&gt;Node17 -->
<g id="edge16_Node000003_Node000017" class="edge">
<title>Node3&#45;&gt;Node17</title>
<g id="a_edge16_Node000003_Node000017"><a xlink:title=" ">
<path fill="none" stroke="#63b8ff" d="M424.08,-335.14C424.75,-334.46 425.39,-333.74 426,-333 495.79,-247.34 390.23,-171.01 462,-87 464.91,-83.59 468.3,-80.66 471.99,-78.14"/>
<polygon fill="#63b8ff" stroke="#63b8ff" points="421.74,-332.53 415.94,-341.4 426,-338.08 421.74,-332.53"/>
</a>
</g>
</g>
<!-- Node18 -->
<g id="Node000018" class="node">
<title>Node18</title>
<g id="a_Node000018"><a xlink:href="class_p4_1_1_p4_tools_1_1_compile_context.html" target="_top" xlink:title="A compilation context for P4Tools that provides a custom compiler configuration.">
<polygon fill="white" stroke="#666666" points="618,-30 462,-30 462,0 618,0 618,-30"/>
<text text-anchor="start" x="470" y="-18" font-family="Helvetica,sans-Serif" font-size="10.00">P4::P4Tools::CompileContext</text>
<text text-anchor="middle" x="540" y="-7" font-family="Helvetica,sans-Serif" font-size="10.00">&lt; OptionsType &gt;</text>
</a>
</g>
</g>
<!-- Node3&#45;&gt;Node18 -->
<g id="edge17_Node000003_Node000018" class="edge">
<title>Node3&#45;&gt;Node18</title>
<g id="a_edge17_Node000003_Node000018"><a xlink:title=" ">
<path fill="none" stroke="#63b8ff" d="M424.11,-335.16C424.77,-334.47 425.4,-333.75 426,-333 507.95,-229.97 377.67,-140.09 462,-39 464.87,-35.56 468.23,-32.6 471.9,-30.07"/>
<polygon fill="#63b8ff" stroke="#63b8ff" points="421.76,-332.56 416.02,-341.46 426.06,-338.08 421.76,-332.56"/>
</a>
</g>
</g>
</g>
</svg>

<g id="navigator" transform="translate(0 0)" fill="#404254">
  <rect fill="#f2f5e9" fill-opacity="0.5" stroke="#606060" stroke-width=".5" x="0" y="0" width="60" height="60"/>
  <use id="zoomplus" xlink:href="#zoomPlus" x="17" y="9" onmousedown="handleZoom(evt,'in')"/>
  <use id="zoomminus" xlink:href="#zoomMin" x="42" y="9" onmousedown="handleZoom(evt,'out')"/>
  <use id="reset" xlink:href="#resetDef" x="30" y="36" onmousedown="handleReset()"/>
   <use id="arrowup" xlink:href="#arrowUp" x="0" y="0" onmousedown="handlePan(0,-1)"/>
  <use id="arrowright" xlink:href="#arrowRight" x="0" y="0" onmousedown="handlePan(1,0)"/>
  <use id="arrowdown" xlink:href="#arrowDown" x="0" y="0" onmousedown="handlePan(0,1)"/>
  <use id="arrowleft" xlink:href="#arrowLeft" x="0" y="0" onmousedown="handlePan(-1,0)"/>
</g>
<svg viewBox="0 0 15 15" width="100%" height="30px" preserveAspectRatio="xMaxYMin meet">
 <g id="arrow_out" transform="scale(0.3 0.3)">
  <a xlink:href="class_p4_1_1_i_compile_context__inherit__graph_org.svg" target="_base">
   <rect id="button" ry="5" rx="5" y="6" x="6" height="38" width="38"
        fill="#f2f5e9" fill-opacity="0.5" stroke="#606060" stroke-width="1.0"/>
   <path id="arrow"
     d="M 11.500037,31.436501 C 11.940474,20.09759 22.043105,11.32322 32.158766,21.979434 L 37.068811,17.246167 C 37.068811,17.246167 37.088388,32 37.088388,32 L 22.160133,31.978069 C 22.160133,31.978069 26.997745,27.140456 26.997745,27.140456 C 18.528582,18.264221 13.291696,25.230495 11.500037,31.436501 z"
     style="fill:#404040;"/>
  </a>
 </g>
</svg>

<style type='text/css'>
<![CDATA[
[data-mouse-over-selected='false'] { opacity: 0.7; }
[data-mouse-over-selected='true']  { opacity: 1.0; }
]]>
</style>
<script type="application/ecmascript"><![CDATA[
document.addEventListener('DOMContentLoaded', (event) => {
  highlightEdges();
  highlightAdjacentNodes();
});
]]></script>
</svg>
