<?xml version="1.0" encoding="UTF-8" standalone="no"?>
<!DOCTYPE svg PUBLIC "-//W3C//DTD SVG 1.1//EN"
 "http://www.w3.org/Graphics/SVG/1.1/DTD/svg11.dtd">
<!-- Generated by graphviz version 2.43.0 (0)
 -->
<!-- Title: P4::Util::Options Pages: 1 -->
<svg width="979pt" height="479pt"
 viewBox="0.00 0.00 979.00 479.00" xmlns="http://www.w3.org/2000/svg" xmlns:xlink="http://www.w3.org/1999/xlink">
<g id="graph0" class="graph" transform="scale(1 1) rotate(0) translate(4 475)">
<title>P4::Util::Options</title>
<!-- Node1 -->
<g id="Node000001" class="node">
<title>Node1</title>
<g id="a_Node000001"><a xlink:title=" ">
<polygon fill="#999999" stroke="#666666" points="95,-232 0,-232 0,-213 95,-213 95,-232"/>
<text text-anchor="middle" x="47.5" y="-220" font-family="Helvetica,sans-Serif" font-size="10.00">P4::Util::Options</text>
</a>
</g>
</g>
<!-- Node2 -->
<g id="Node000002" class="node">
<title>Node2</title>
<g id="a_Node000002"><a xlink:href="class_p4_1_1_parser_options.html" target="_top" xlink:title=" ">
<polygon fill="white" stroke="#666666" points="233,-232 131,-232 131,-213 233,-213 233,-232"/>
<text text-anchor="middle" x="182" y="-220" font-family="Helvetica,sans-Serif" font-size="10.00">P4::ParserOptions</text>
</a>
</g>
</g>
<!-- Node1&#45;&gt;Node2 -->
<g id="edge1_Node000001_Node000002" class="edge">
<title>Node1&#45;&gt;Node2</title>
<g id="a_edge1_Node000001_Node000002"><a xlink:title=" ">
<path fill="none" stroke="#63b8ff" d="M105.34,-222.5C113.76,-222.5 122.38,-222.5 130.66,-222.5"/>
<polygon fill="#63b8ff" stroke="#63b8ff" points="105.21,-219 95.21,-222.5 105.21,-226 105.21,-219"/>
</a>
</g>
</g>
<!-- Node3 -->
<g id="Node000003" class="node">
<title>Node3</title>
<g id="a_Node000003"><a xlink:href="class_p4_1_1_compiler_options.html" target="_top" xlink:title=" ">
<polygon fill="white" stroke="#bfbfbf" points="385,-232 269,-232 269,-213 385,-213 385,-232"/>
<text text-anchor="middle" x="327" y="-220" font-family="Helvetica,sans-Serif" font-size="10.00">P4::CompilerOptions</text>
</a>
</g>
</g>
<!-- Node2&#45;&gt;Node3 -->
<g id="edge2_Node000002_Node000003" class="edge">
<title>Node2&#45;&gt;Node3</title>
<g id="a_edge2_Node000002_Node000003"><a xlink:title=" ">
<path fill="none" stroke="#63b8ff" d="M243.25,-222.5C251.75,-222.5 260.47,-222.5 268.92,-222.5"/>
<polygon fill="#63b8ff" stroke="#63b8ff" points="243.01,-219 233.01,-222.5 243.01,-226 243.01,-219"/>
</a>
</g>
</g>
<!-- Node4 -->
<g id="Node000004" class="node">
<title>Node4</title>
<g id="a_Node000004"><a xlink:href="class_p4_1_1_b_m_v2_1_1_b_m_v2_options.html" target="_top" xlink:title=" ">
<polygon fill="white" stroke="#bfbfbf" points="563,-435 428,-435 428,-416 563,-416 563,-435"/>
<text text-anchor="middle" x="495.5" y="-423" font-family="Helvetica,sans-Serif" font-size="10.00">P4::BMV2::BMV2Options</text>
</a>
</g>
</g>
<!-- Node3&#45;&gt;Node4 -->
<g id="edge3_Node000003_Node000004" class="edge">
<title>Node3&#45;&gt;Node4</title>
<g id="a_edge3_Node000003_Node000004"><a xlink:title=" ">
<path fill="none" stroke="#63b8ff" d="M332.14,-242.23C341.2,-280.33 366.49,-364.08 421,-407.5 425.21,-410.86 429.96,-413.6 434.97,-415.84"/>
<polygon fill="#63b8ff" stroke="#63b8ff" points="335.53,-241.35 329.92,-232.37 328.7,-242.89 335.53,-241.35"/>
</a>
</g>
</g>
<!-- Node9 -->
<g id="Node000009" class="node">
<title>Node9</title>
<g id="a_Node000009"><a xlink:href="class_p4_1_1_d_p_d_k_1_1_dpdk_options.html" target="_top" xlink:title=" ">
<polygon fill="white" stroke="#bfbfbf" points="561,-398 430,-398 430,-379 561,-379 561,-398"/>
<text text-anchor="middle" x="495.5" y="-386" font-family="Helvetica,sans-Serif" font-size="10.00">P4::DPDK::DpdkOptions</text>
</a>
</g>
</g>
<!-- Node3&#45;&gt;Node9 -->
<g id="edge8_Node000003_Node000009" class="edge">
<title>Node3&#45;&gt;Node9</title>
<g id="a_edge8_Node000003_Node000009"><a xlink:title=" ">
<path fill="none" stroke="#63b8ff" d="M334.62,-241.79C346.61,-273.72 375.01,-337.32 421,-370.5 425.69,-373.88 430.94,-376.63 436.41,-378.87"/>
<polygon fill="#63b8ff" stroke="#63b8ff" points="337.87,-240.48 331.18,-232.26 331.29,-242.86 337.87,-240.48"/>
</a>
</g>
</g>
<!-- Node10 -->
<g id="Node000010" class="node">
<title>Node10</title>
<g id="a_Node000010"><a xlink:href="class_p4_1_1_ebpf_options.html" target="_top" xlink:title=" ">
<polygon fill="white" stroke="#bfbfbf" points="542.5,-361 448.5,-361 448.5,-342 542.5,-342 542.5,-361"/>
<text text-anchor="middle" x="495.5" y="-349" font-family="Helvetica,sans-Serif" font-size="10.00">P4::EbpfOptions</text>
</a>
</g>
</g>
<!-- Node3&#45;&gt;Node10 -->
<g id="edge9_Node000003_Node000010" class="edge">
<title>Node3&#45;&gt;Node10</title>
<g id="a_edge9_Node000003_Node000010"><a xlink:title=" ">
<path fill="none" stroke="#63b8ff" d="M338.51,-240.92C353.56,-265.6 383.61,-309.01 421,-332.5 429.26,-337.69 438.88,-341.47 448.4,-344.21"/>
<polygon fill="#63b8ff" stroke="#63b8ff" points="341.43,-238.99 333.32,-232.17 335.41,-242.56 341.43,-238.99"/>
</a>
</g>
</g>
<!-- Node11 -->
<g id="Node000011" class="node">
<title>Node11</title>
<g id="a_Node000011"><a xlink:href="class_p4_1_1_p4_features_1_1_p4_features_options.html" target="_top" xlink:title=" ">
<polygon fill="white" stroke="#bfbfbf" points="570,-323.5 421,-323.5 421,-293.5 570,-293.5 570,-323.5"/>
<text text-anchor="start" x="429" y="-311.5" font-family="Helvetica,sans-Serif" font-size="10.00">P4::P4Features::P4Features</text>
<text text-anchor="middle" x="495.5" y="-300.5" font-family="Helvetica,sans-Serif" font-size="10.00">Options</text>
</a>
</g>
</g>
<!-- Node3&#45;&gt;Node11 -->
<g id="edge10_Node000003_Node000011" class="edge">
<title>Node3&#45;&gt;Node11</title>
<g id="a_edge10_Node000003_Node000011"><a xlink:title=" ">
<path fill="none" stroke="#63b8ff" d="M348.09,-238.25C366.3,-251.93 394.3,-271.54 421,-284.5 427.76,-287.78 435.08,-290.78 442.4,-293.45"/>
<polygon fill="#63b8ff" stroke="#63b8ff" points="350.06,-235.35 339.99,-232.06 345.81,-240.91 350.06,-235.35"/>
</a>
</g>
</g>
<!-- Node12 -->
<g id="Node000012" class="node">
<title>Node12</title>
<g id="a_Node000012"><a xlink:href="class_p4_1_1_p4_fmt_1_1_p4fmt_options.html" target="_top" xlink:title=" ">
<polygon fill="white" stroke="#bfbfbf" points="565,-275 426,-275 426,-256 565,-256 565,-275"/>
<text text-anchor="middle" x="495.5" y="-263" font-family="Helvetica,sans-Serif" font-size="10.00">P4::P4Fmt::P4fmtOptions</text>
</a>
</g>
</g>
<!-- Node3&#45;&gt;Node12 -->
<g id="edge11_Node000003_Node000012" class="edge">
<title>Node3&#45;&gt;Node12</title>
<g id="a_edge11_Node000003_Node000012"><a xlink:title=" ">
<path fill="none" stroke="#63b8ff" d="M374.68,-234.56C400.92,-241.33 433.21,-249.67 457.65,-255.98"/>
<polygon fill="#63b8ff" stroke="#63b8ff" points="375.51,-231.15 364.95,-232.04 373.76,-237.93 375.51,-231.15"/>
</a>
</g>
</g>
<!-- Node13 -->
<g id="Node000013" class="node">
<title>Node13</title>
<g id="a_Node000013"><a xlink:href="class_p4_1_1_p4_tools_1_1_abstract_p4c_tool_options.html" target="_top" xlink:title=" ">
<polygon fill="white" stroke="#666666" points="563,-237.5 428,-237.5 428,-207.5 563,-207.5 563,-237.5"/>
<text text-anchor="start" x="436" y="-225.5" font-family="Helvetica,sans-Serif" font-size="10.00">P4::P4Tools::AbstractP4c</text>
<text text-anchor="middle" x="495.5" y="-214.5" font-family="Helvetica,sans-Serif" font-size="10.00">ToolOptions</text>
</a>
</g>
</g>
<!-- Node3&#45;&gt;Node13 -->
<g id="edge12_Node000003_Node000013" class="edge">
<title>Node3&#45;&gt;Node13</title>
<g id="a_edge12_Node000003_Node000013"><a xlink:title=" ">
<path fill="none" stroke="#63b8ff" d="M395.44,-222.5C406.15,-222.5 417.23,-222.5 427.93,-222.5"/>
<polygon fill="#63b8ff" stroke="#63b8ff" points="395.3,-219 385.3,-222.5 395.3,-226 395.3,-219"/>
</a>
</g>
</g>
<!-- Node16 -->
<g id="Node000016" class="node">
<title>Node16</title>
<g id="a_Node000016"><a xlink:href="class_p4_1_1_p4_tools_1_1_test_1_1_p4_reachability_options.html" target="_top" xlink:title=" ">
<polygon fill="white" stroke="#bfbfbf" points="559,-189.5 432,-189.5 432,-159.5 559,-159.5 559,-189.5"/>
<text text-anchor="start" x="440" y="-177.5" font-family="Helvetica,sans-Serif" font-size="10.00">P4::P4Tools::Test::</text>
<text text-anchor="middle" x="495.5" y="-166.5" font-family="Helvetica,sans-Serif" font-size="10.00">P4ReachabilityOptions</text>
</a>
</g>
</g>
<!-- Node3&#45;&gt;Node16 -->
<g id="edge15_Node000003_Node000016" class="edge">
<title>Node3&#45;&gt;Node16</title>
<g id="a_edge15_Node000003_Node000016"><a xlink:title=" ">
<path fill="none" stroke="#63b8ff" d="M370.92,-210.13C392.69,-203.85 419.3,-196.18 442.25,-189.56"/>
<polygon fill="#63b8ff" stroke="#63b8ff" points="369.93,-206.77 361.29,-212.9 371.87,-213.49 369.93,-206.77"/>
</a>
</g>
</g>
<!-- Node17 -->
<g id="Node000017" class="node">
<title>Node17</title>
<g id="a_Node000017"><a xlink:href="class_p4_1_1_p4_tools_1_1_test_1_1_p4_test_options.html" target="_top" xlink:title=" ">
<polygon fill="white" stroke="#bfbfbf" points="547,-141.5 444,-141.5 444,-111.5 547,-111.5 547,-141.5"/>
<text text-anchor="start" x="452" y="-129.5" font-family="Helvetica,sans-Serif" font-size="10.00">P4::P4Tools::Test::</text>
<text text-anchor="middle" x="495.5" y="-118.5" font-family="Helvetica,sans-Serif" font-size="10.00">P4TestOptions</text>
</a>
</g>
</g>
<!-- Node3&#45;&gt;Node17 -->
<g id="edge16_Node000003_Node000017" class="edge">
<title>Node3&#45;&gt;Node17</title>
<g id="a_edge16_Node000003_Node000017"><a xlink:title=" ">
<path fill="none" stroke="#63b8ff" d="M345.88,-205.6C363.7,-189.53 392.47,-165.62 421,-150.5 428.12,-146.73 435.94,-143.41 443.74,-140.53"/>
<polygon fill="#63b8ff" stroke="#63b8ff" points="343.05,-203.45 338.05,-212.79 347.78,-208.6 343.05,-203.45"/>
</a>
</g>
</g>
<!-- Node18 -->
<g id="Node000018" class="node">
<title>Node18</title>
<g id="a_Node000018"><a xlink:href="class_p4_1_1_t_c_1_1_t_c_options.html" target="_top" xlink:title=" ">
<polygon fill="white" stroke="#bfbfbf" points="546.5,-93 444.5,-93 444.5,-74 546.5,-74 546.5,-93"/>
<text text-anchor="middle" x="495.5" y="-81" font-family="Helvetica,sans-Serif" font-size="10.00">P4::TC::TCOptions</text>
</a>
</g>
</g>
<!-- Node3&#45;&gt;Node18 -->
<g id="edge17_Node000003_Node000018" class="edge">
<title>Node3&#45;&gt;Node18</title>
<g id="a_edge17_Node000003_Node000018"><a xlink:title=" ">
<path fill="none" stroke="#63b8ff" d="M337.24,-203.95C351.49,-177.32 381.37,-128.59 421,-102.5 428.05,-97.86 436.16,-94.35 444.37,-91.7"/>
<polygon fill="#63b8ff" stroke="#63b8ff" points="334.06,-202.49 332.56,-212.98 340.27,-205.72 334.06,-202.49"/>
</a>
</g>
</g>
<!-- Node19 -->
<g id="Node000019" class="node">
<title>Node19</title>
<g id="a_Node000019"><a xlink:href="class_p4_1_1graphs_1_1_options.html" target="_top" xlink:title=" ">
<polygon fill="white" stroke="#bfbfbf" points="551,-56 440,-56 440,-37 551,-37 551,-56"/>
<text text-anchor="middle" x="495.5" y="-44" font-family="Helvetica,sans-Serif" font-size="10.00">P4::graphs::Options</text>
</a>
</g>
</g>
<!-- Node3&#45;&gt;Node19 -->
<g id="edge18_Node000003_Node000019" class="edge">
<title>Node3&#45;&gt;Node19</title>
<g id="a_edge18_Node000003_Node000019"><a xlink:title=" ">
<path fill="none" stroke="#63b8ff" d="M333.77,-203.34C344.9,-169.77 372.6,-100.49 421,-64.5 426.59,-60.34 433.01,-57.14 439.69,-54.67"/>
<polygon fill="#63b8ff" stroke="#63b8ff" points="330.43,-202.3 330.73,-212.89 337.1,-204.42 330.43,-202.3"/>
</a>
</g>
</g>
<!-- Node20 -->
<g id="Node000020" class="node">
<title>Node20</title>
<g id="a_Node000020"><a xlink:href="class_p4_test_options.html" target="_top" xlink:title=" ">
<polygon fill="white" stroke="#bfbfbf" points="538.5,-19 452.5,-19 452.5,0 538.5,0 538.5,-19"/>
<text text-anchor="middle" x="495.5" y="-7" font-family="Helvetica,sans-Serif" font-size="10.00">P4TestOptions</text>
</a>
</g>
</g>
<!-- Node3&#45;&gt;Node20 -->
<g id="edge19_Node000003_Node000020" class="edge">
<title>Node3&#45;&gt;Node20</title>
<g id="a_edge19_Node000003_Node000020"><a xlink:title=" ">
<path fill="none" stroke="#63b8ff" d="M331.64,-202.54C339.96,-162.81 364.21,-73.7 421,-27.5 429.87,-20.29 441.19,-15.9 452.29,-13.25"/>
<polygon fill="#63b8ff" stroke="#63b8ff" points="328.16,-202.08 329.66,-212.57 335.03,-203.43 328.16,-202.08"/>
</a>
</g>
</g>
<!-- Node5 -->
<g id="Node000005" class="node">
<title>Node5</title>
<g id="a_Node000005"><a xlink:href="class_p4_1_1_b_m_v2_1_1_portable_options.html" target="_top" xlink:title=" ">
<polygon fill="white" stroke="#bfbfbf" points="766,-453 619,-453 619,-434 766,-434 766,-453"/>
<text text-anchor="middle" x="692.5" y="-441" font-family="Helvetica,sans-Serif" font-size="10.00">P4::BMV2::PortableOptions</text>
</a>
</g>
</g>
<!-- Node4&#45;&gt;Node5 -->
<g id="edge4_Node000004_Node000005" class="edge">
<title>Node4&#45;&gt;Node5</title>
<g id="a_edge4_Node000004_Node000005"><a xlink:title=" ">
<path fill="none" stroke="#63b8ff" d="M573.33,-432.59C588.33,-433.98 604.03,-435.43 618.89,-436.8"/>
<polygon fill="#63b8ff" stroke="#63b8ff" points="573.34,-429.08 563.06,-431.64 572.7,-436.05 573.34,-429.08"/>
</a>
</g>
</g>
<!-- Node8 -->
<g id="Node000008" class="node">
<title>Node8</title>
<g id="a_Node000008"><a xlink:href="class_p4_1_1_b_m_v2_1_1_simple_switch_options.html" target="_top" xlink:title=" ">
<polygon fill="white" stroke="#bfbfbf" points="779,-416 606,-416 606,-397 779,-397 779,-416"/>
<text text-anchor="middle" x="692.5" y="-404" font-family="Helvetica,sans-Serif" font-size="10.00">P4::BMV2::SimpleSwitchOptions</text>
</a>
</g>
</g>
<!-- Node4&#45;&gt;Node8 -->
<g id="edge7_Node000004_Node000008" class="edge">
<title>Node4&#45;&gt;Node8</title>
<g id="a_edge7_Node000004_Node000008"><a xlink:title=" ">
<path fill="none" stroke="#63b8ff" d="M573.23,-418.02C583.96,-416.98 595.05,-415.9 605.93,-414.84"/>
<polygon fill="#63b8ff" stroke="#63b8ff" points="572.68,-414.56 563.06,-419.01 573.35,-421.53 572.68,-414.56"/>
</a>
</g>
</g>
<!-- Node6 -->
<g id="Node000006" class="node">
<title>Node6</title>
<g id="a_Node000006"><a xlink:href="class_p4_1_1_b_m_v2_1_1_pna_nic_options.html" target="_top" xlink:title=" ">
<polygon fill="white" stroke="#bfbfbf" points="963,-471 823,-471 823,-452 963,-452 963,-471"/>
<text text-anchor="middle" x="893" y="-459" font-family="Helvetica,sans-Serif" font-size="10.00">P4::BMV2::PnaNicOptions</text>
</a>
</g>
</g>
<!-- Node5&#45;&gt;Node6 -->
<g id="edge5_Node000005_Node000006" class="edge">
<title>Node5&#45;&gt;Node6</title>
<g id="a_edge5_Node000005_Node000006"><a xlink:title=" ">
<path fill="none" stroke="#63b8ff" d="M776.15,-450.99C791.74,-452.41 807.88,-453.87 823,-455.24"/>
<polygon fill="#63b8ff" stroke="#63b8ff" points="776.28,-447.49 766.01,-450.07 775.65,-454.46 776.28,-447.49"/>
</a>
</g>
</g>
<!-- Node7 -->
<g id="Node000007" class="node">
<title>Node7</title>
<g id="a_Node000007"><a xlink:href="class_p4_1_1_b_m_v2_1_1_psa_switch_options.html" target="_top" xlink:title=" ">
<polygon fill="white" stroke="#bfbfbf" points="971,-434 815,-434 815,-415 971,-415 971,-434"/>
<text text-anchor="middle" x="893" y="-422" font-family="Helvetica,sans-Serif" font-size="10.00">P4::BMV2::PsaSwitchOptions</text>
</a>
</g>
</g>
<!-- Node5&#45;&gt;Node7 -->
<g id="edge6_Node000005_Node000007" class="edge">
<title>Node5&#45;&gt;Node7</title>
<g id="a_edge6_Node000005_Node000007"><a xlink:title=" ">
<path fill="none" stroke="#63b8ff" d="M776.14,-435.59C788.9,-434.37 802.04,-433.11 814.68,-431.9"/>
<polygon fill="#63b8ff" stroke="#63b8ff" points="775.63,-432.12 766.01,-436.56 776.29,-439.09 775.63,-432.12"/>
</a>
</g>
</g>
<!-- Node14 -->
<g id="Node000014" class="node">
<title>Node14</title>
<g id="a_Node000014"><a xlink:href="class_p4_1_1_p4_tools_1_1_p4_testgen_1_1_testgen_options.html" target="_top" xlink:title="Encapsulates and processes command&#45;line options for P4Testgen.">
<polygon fill="white" stroke="#666666" points="756,-258.5 629,-258.5 629,-228.5 756,-228.5 756,-258.5"/>
<text text-anchor="start" x="637" y="-246.5" font-family="Helvetica,sans-Serif" font-size="10.00">P4::P4Tools::P4Testgen</text>
<text text-anchor="middle" x="692.5" y="-235.5" font-family="Helvetica,sans-Serif" font-size="10.00">::TestgenOptions</text>
</a>
</g>
</g>
<!-- Node13&#45;&gt;Node14 -->
<g id="edge13_Node000013_Node000014" class="edge">
<title>Node13&#45;&gt;Node14</title>
<g id="a_edge13_Node000013_Node000014"><a xlink:title=" ">
<path fill="none" stroke="#63b8ff" d="M573.19,-230.76C591.64,-232.75 611.13,-234.84 628.85,-236.75"/>
<polygon fill="#63b8ff" stroke="#63b8ff" points="573.38,-227.26 563.06,-229.67 572.63,-234.22 573.38,-227.26"/>
</a>
</g>
</g>
<!-- Node15 -->
<g id="Node000015" class="node">
<title>Node15</title>
<g id="a_Node000015"><a xlink:href="class_p4_1_1_p4_tools_1_1_smith_options.html" target="_top" xlink:title=" ">
<polygon fill="white" stroke="#bfbfbf" points="764,-210 621,-210 621,-191 764,-191 764,-210"/>
<text text-anchor="middle" x="692.5" y="-198" font-family="Helvetica,sans-Serif" font-size="10.00">P4::P4Tools::SmithOptions</text>
</a>
</g>
</g>
<!-- Node13&#45;&gt;Node15 -->
<g id="edge14_Node000013_Node000015" class="edge">
<title>Node13&#45;&gt;Node15</title>
<g id="a_edge14_Node000013_Node000015"><a xlink:title=" ">
<path fill="none" stroke="#63b8ff" d="M573.26,-213.84C588.97,-212.07 605.43,-210.21 620.91,-208.46"/>
<polygon fill="#63b8ff" stroke="#63b8ff" points="572.61,-210.39 563.06,-214.99 573.39,-217.35 572.61,-210.39"/>
</a>
</g>
</g>
</g>
</svg>
